PathFileType	3	(X/Y/Z)	D:\minhoCalibration\240510\subject2_KPNP\preferred\preferred12.trc
DataRate	CameraRate	NumFrames	NumMarkers	Units	OrigDataRate	OrigDataStartFrame	OrigNumFrames
200.0	200.0	30	10	mm	200.0	273	176	
Frame#	Time	Left_Ankle_Outer1			Left_Ankle_Inner1			Left_Knee_Outer1			Left_Knee_Inner1			Left_Wrist1			Right_Wrist1			Right_Knee_Inner1			Right_Knee_Outer1			Right_Ankle_Inner1			Right_Ankle_Outer1			
		X1	Y1	Z1	X2	Y2	Z2	X3	Y3	Z3	X4	Y4	Z4	X5	Y5	Z5	X6	Y6	Z6	X7	Y7	Z7	X8	Y8	Z8	X9	Y9	Z9	X10	Y10	Z10	
273	1.355	-650.7511	142.68454	-640.84888	-644.07867	145.46637	-586.06128	-483.4917	556.17938	-688.08026	-490.97104	537.83826	-592.7619	-600.87622	965.75018	-755.32758	-613.71075	1193.6135	-492.46851	-377.87006	970.98029	-160.54727	-408.02719	1054.5464	-142.6479	-350.9942	834.75549	222.65417	-362.86322	927.85223	256.73801
274	1.36	-650.30176	142.72362	-641.76001	-644.33673	145.55513	-586.44501	-484.16699	555.96692	-688.0343	-490.35934	537.48627	-593.20575	-597.34399	968.16357	-755.52893	-616.22192	1192.2904	-490.70163	-380.54324	966.60901	-159.13101	-410.47308	1050.3574	-140.73895	-356.42645	823.35193	220.58493	-368.09717	915.51562	256.67514
275	1.365	-649.83752	142.80603	-642.96179	-644.38489	146.05228	-586.75488	-485.11826	555.37903	-687.91254	-490.07288	537.052	-593.55554	-593.84082	970.50116	-755.89038	-618.71277	1190.9099	-488.90497	-382.77277	961.00189	-158.35625	-412.58752	1045.8741	-139.34518	-362.12228	811.55573	218.02365	-374.50516	903.08118	256.20007
276	1.37	-649.27979	142.80994	-644.36938	-644.45844	145.87109	-588.2608	-486.56308	554.22723	-687.60052	-490.14612	536.64655	-593.69489	-590.53674	972.59589	-756.17432	-621.17035	1189.6393	-487.13208	-385.1048	956.20343	-157.90849	-414.11777	1041.0966	-138.43275	-368.50845	799.59827	215.60153	-381.99411	890.66614	255.2408
277	1.375	-648.71747	142.71735	-645.7326	-644.89832	144.86385	-590.72906	-486.77203	554.00391	-687.55939	-490.69757	536.14478	-593.44177	-587.40979	974.51135	-756.47424	-623.49353	1188.5298	-485.42801	-387.11398	950.60931	-157.96574	-414.80286	1036.1531	-137.99289	-375.70535	786.74091	213.01352	-390.6543	877.80701	253.79985
278	1.38	-648.44189	142.77176	-647.27087	-645.00323	144.70259	-591.94537	-487.85089	553.10474	-686.6496	-491.69141	535.59509	-592.81793	-584.47076	976.03735	-756.51947	-625.50824	1187.9653	-483.79465	-388.8197	945.05792	-158.12003	-414.82114	1031.2041	-138.01715	-383.11737	775.71741	210.47208	-400.27997	864.82343	252.54378
279	1.385	-648.16351	142.51636	-648.44531	-645.16827	144.81192	-592.61774	-488.02332	552.51801	-685.8858	-492.95505	535.07135	-591.94208	-581.76093	977.31671	-756.34619	-627.58618	1187.4105	-482.67914	-391.24985	938.68378	-157.56509	-414.90421	1026.1741	-138.21458	-391.5549	762.84094	206.90164	-409.82376	850.97559	250.21127
280	1.39	-648.021	142.23958	-649.56	-645.63275	144.35435	-593.40344	-488.14774	551.9231	-684.5636	-494.55368	534.54333	-590.77484	-579.19733	978.29395	-756.00751	-630.45142	1187.35	-482.13895	-392.32562	933.52631	-157.68941	-415.90894	1020.9249	-138.20258	-399.82986	749.40747	202.59932	-419.98471	837.04901	247.5985
281	1.395	-648.0954	141.8613	-650.27081	-646.67059	143.28505	-594.15454	-487.7984	551.26483	-683.36206	-496.35052	534.14026	-589.42688	-576.74017	978.92249	-755.60205	-632.42377	1187.1759	-481.43643	-392.11194	929.2168	-158.54781	-417.95175	1015.4858	-137.79297	-409.18628	736.6272	197.98497	-430.46213	823.07086	244.58679
282	1.4	-648.13	140.79227	-650.15057	-647.45819	142.49858	-594.51874	-486.52307	551.31335	-682.11908	-498.3833	533.78168	-587.94348	-574.67395	979.22644	-754.84705	-634.0083	1186.635	-480.89548	-392.67786	924.38776	-158.89153	-420.4274	1009.9243	-137.38245	-419.12708	723.37146	192.67195	-440.75824	808.83148	240.88452
283	1.405	-648.53741	140.04039	-650.2572	-648.09747	141.62695	-594.52521	-486.27472	550.46167	-680.05731	-500.61111	533.34515	-586.341	-572.62628	979.32892	-754.19373	-635.31158	1185.741	-480.2789	-393.86887	919.26208	-159.10188	-422.83249	1004.2552	-137.20099	-429.41678	710.26166	186.76355	-451.27213	794.466	236.75853
284	1.41	-649.10059	139.31435	-650.29254	-648.67798	140.66702	-594.73126	-485.51578	550.03058	-678.21429	-502.86627	532.9646	-584.823	-570.474	979.37781	-753.71686	-636.26556	1184.5911	-479.65656	-393.64551	914.50018	-159.72459	-425.17807	998.42975	-137.18163	-440.30573	697.30566	180.46042	-461.88171	780.01202	232.0708
285	1.415	-649.78192	138.27263	-649.77454	-649.64825	139.18613	-595.01801	-484.56473	549.94971	-676.33185	-505.16241	532.52917	-583.39142	-568.63336	979.20709	-753.17065	-637.12262	1183.1929	-479.01959	-394.06396	910.02557	-160.63454	-427.39743	992.38226	-137.17278	-451.42514	683.78864	173.37666	-472.60992	765.42816	226.82272
286	1.42	-650.46265	137.34608	-649.31775	-650.55402	138.78203	-593.703	-484.44028	548.95148	-674.49164	-507.509	532.05261	-581.95105	-566.57111	979.14575	-753.04419	-637.96692	1181.5883	-478.30374	-394.21811	904.81525	-161.88518	-429.50836	986.12299	-137.28014	-462.65643	670.12378	165.58838	-483.48279	750.69232	220.95927
287	1.425	-651.23041	136.33749	-648.62415	-651.4834	137.50626	-593.53717	-483.73376	548.66803	-673.1012	-509.66931	531.47363	-580.72583	-564.55206	979.00269	-752.85919	-638.77319	1179.8997	-477.66333	-395.04446	898.84564	-162.8833	-431.54132	979.60089	-137.40974	-473.98309	656.29248	157.26729	-494.495	735.74738	214.3611
288	1.43	-652.01941	135.48714	-648.02435	-652.64984	135.99738	-593.32446	-484.39517	547.49634	-671.35663	-511.74753	530.7724	-579.60699	-562.52856	978.9071	-752.72571	-639.57098	1178.0275	-476.95657	-395.93774	892.58612	-164.52859	-433.48492	972.81519	-137.54797	-487.49817	641.86444	150.47264	-505.8512	720.74811	207.14098
289	1.435	-652.69489	134.49635	-647.12787	-653.17432	135.9765	-591.50476	-484.79691	546.63306	-670.23352	-513.62329	530.0318	-578.76746	-560.22717	978.86853	-752.87219	-640.44678	1176.0693	-476.37332	-396.96313	885.43597	-166.32523	-435.31311	965.75824	-137.75041	-497.22079	627.97278	139.24763	-517.55096	705.76459	199.33469
290	1.44	-653.35657	133.48009	-646.37903	-653.99426	134.86734	-590.91882	-485.39813	545.64423	-669.31488	-515.58228	529.11932	-577.97339	-557.96515	978.87769	-752.85535	-641.46698	1174.0493	-475.83514	-397.45618	878.63251	-168.43484	-437.01462	958.44104	-137.93533	-507.61877	614.30908	128.758	-528.80823	690.26709	190.19423
291	1.445	-654.02551	132.7317	-645.91083	-655.13965	133.68428	-590.22345	-486.10413	544.67377	-668.67883	-516.42621	528.23633	-577.44263	-555.625	978.94214	-752.76355	-642.53827	1171.8785	-475.39355	-400.69485	870.55756	-169.37274	-438.68954	950.85712	-138.1304	-518.25446	600.7196	118.1763	-541.05255	675.4342	182.13243
292	1.45	-654.57324	131.74411	-645.02704	-655.6958	133.21973	-589.216	-486.8436	543.68762	-668.16364	-517.51624	527.37292	-577.10095	-553.32294	979.08612	-752.57672	-644.00952	1169.7944	-474.94086	-403.02679	862.68817	-170.95027	-440.33896	943.00989	-138.43588	-528.86829	586.95618	107.2534	-553.05939	660.44489	172.50154
293	1.455	-655.17395	131.01018	-644.51892	-656.6344	132.70714	-587.99725	-487.64493	542.55182	-667.87292	-518.28406	526.4765	-576.86853	-551.05054	979.185	-752.26794	-645.58051	1167.6688	-474.50055	-404.83612	854.96075	-172.97179	-442.28171	934.9964	-138.78386	-539.23993	573.26758	95.897232	-565.17883	645.10822	162.39667
294	1.46	-655.68921	130.16782	-644.15717	-657.64777	131.91129	-587.64441	-488.42401	541.46307	-667.62158	-518.90973	525.55597	-576.78442	-548.76764	979.34674	-751.94867	-647.04755	1165.1899	-474.39282	-406.26358	847.62018	-175.00859	-444.6571	926.74823	-139.18733	-549.3197	559.44324	83.879066	-576.95935	629.74707	150.76782
295	1.465	-656.15167	129.36627	-643.91809	-658.05853	131.12585	-587.67078	-489.18573	540.36322	-667.44055	-519.51703	524.7049	-576.68237	-546.4726	979.78247	-751.60596	-648.66595	1163.0176	-473.89539	-408.87659	839.93207	-176.6528	-447.70032	918.38727	-139.53838	-558.65448	546.16675	71.33223	-589.33984	614.9278	140.4066
296	1.47	-656.57855	128.58633	-643.80396	-658.81104	129.55472	-588.71393	-489.90591	539.18878	-667.3584	-520.0741	523.81799	-576.70367	-544.09296	980.12616	-751.21582	-650.38617	1160.7549	-473.43613	-412.62259	831.90356	-177.87604	-451.34378	909.83313	-139.92676	-568.99634	532.43231	59.21981	-601.14203	599.47925	127.8685
297	1.475	-657.05292	127.83382	-644.11823	-659.15045	129.37088	-588.30328	-490.53659	538.13806	-667.37256	-520.64728	522.94629	-576.8064	-541.76038	980.37012	-750.70459	-652.23425	1158.4415	-472.92166	-414.59354	824.79785	-179.67616	-455.62921	901.10388	-140.34113	-578.5144	519.31519	46.194614	-613.13995	585.35516	117.28143
298	1.48	-657.31091	126.95611	-644.1994	-659.53149	126.86173	-590.18115	-491.06839	537.07812	-667.47211	-521.23993	522.13098	-576.90338	-539.34375	980.73273	-750.20093	-654.15051	1155.9415	-472.43707	-416.93201	817.52905	-181.63089	-460.55951	892.26111	-140.69356	-590.62799	505.80264	35.56691	-624.25702	570.55005	103.9098
299	1.485	-657.58319	126.13268	-644.66138	-660.04584	126.85938	-589.66956	-491.54398	536.11914	-667.60901	-521.84735	521.39233	-577.10968	-537.04675	981.10754	-749.7547	-656.17444	1153.2581	-471.93927	-420.41547	810.24573	-182.7269	-465.94348	883.26636	-141.11525	-599.88177	493.06204	21.974466	-635.91028	556.18268	92.069069
300	1.49	-657.81616	125.37833	-645.22156	-660.3667	126.59756	-589.61963	-491.99579	535.12292	-667.90723	-522.52209	520.40857	-577.62622	-534.81989	981.43738	-749.19592	-658.37378	1150.3982	-471.31934	-424.67755	802.54492	-183.63214	-471.4606	874.19519	-142.1162	-608.29486	480.60587	7.0999479	-646.20416	541.05164	76.938339
301	1.495	-658.10156	124.7766	-646.2818	-661.6004	125.8791	-589.58923	-492.32007	534.24463	-668.23773	-523.17871	519.77576	-577.98401	-532.6897	981.79266	-748.63361	-660.48822	1147.2843	-470.85709	-428.51578	795.12823	-184.7251	-477.53653	864.92358	-142.7122	-616.40973	468.30899	-8.2670021	-657.10272	527.60992	64.807426
302	1.5	-658.22919	123.78533	-646.92316	-661.48566	123.80315	-592.79004	-492.52225	533.38727	-668.71588	-523.82336	519.1557	-578.47717	-530.60828	982.19391	-748.08777	-662.62439	1143.8954	-470.38712	-432.38708	787.59247	-185.99893	-483.81351	855.54468	-143.51535	-627.65961	455.99298	-20.655588	-667.36298	513.90662	51.479271
